# xmcd
#
# Track frame offsets: 
#        150
#        19037
#        36562
#        54940
#        70722
#        89285
#        106417
#        122732
#        142647
#        159667
#
# Disc length: 2348 seconds
#
# Revision: 1
# Processed by: cddbd v1.5.2PL0 Copyright (c) Steve Scherf et al.
# Submitted via: ExactAudioCopy v0.95b4
#
DISCID=7b092a0a
DTITLE=น้องใหม่  เมืองชุมแพ - นางเอกหมอลำช้ำรัก
DYEAR=1900
DGENRE=Country
TTITLE0=นางเอกหมอลำช้ำรัก
TTITLE1=เหมือนตายทั้งเป็น
TTITLE2=ลารัก
TTITLE3=รักไร้สัญญาณ
TTITLE4=แฟนใคร
TTITLE5=น้องใหม่วอนแฟน
TTITLE6=เซาเหล้าสาอ้าย
TTITLE7=ฮักคนดีดพิณ
TTITLE8=ลำซิ่งดิ้นม่วนม่วน
TTITLE9=ผัวเหี่ยเมี'่วน
EXTD=
EXTT0=
EXTT1=
EXTT2=
EXTT3=
EXTT4=
EXTT5=
EXTT6=
EXTT7=
EXTT8=
EXTT9=
PLAYORDER=
